<?xml version="1.0" encoding="UTF-8" standalone="no"?><!-- Generator: Gravit.io --><svg xmlns="http://www.w3.org/2000/svg" xmlns:xlink="http://www.w3.org/1999/xlink" style="isolation:isolate" viewBox="0 0 200 200" width="200pt" height="200pt"><g><path d=" M 117 160 L 123 147 L 114 136 Q 123.375 118.688 123 119 Q 122.625 119.313 113 109 L 122 102 L 130 53 L 97 20 L 64 54 L 72 103 L 82 110 L 53 103 L 46 71 L 46 53 L 63 19 L 78 9 L 97 2 L 119 10 L 131 19 L 148 51 L 148 71 L 140 103 L 148 113 L 148 125 L 141 135 L 147 145 L 147 156 L 137 169 L 138 170 L 138 178 L 137 179 L 141 186 Q 133.938 198 131 198 Q 128.063 198 120 186 L 125 178 L 124 177 L 124 170 L 125 169 L 117 160 Z " fill="rgb(225,67,66)"/><path d=" M 97 153 L 97 115 L 104 115 L 113 109 L 122 102 L 130 53 L 97 20 L 97 115 L 89 115 L 85 112 L 84 113 L 84 114 L 84 134 L 80 136 L 70 138 L 70 146 L 78 145 L 97 153 Z  M 66 139 L 63 140 L 58 153 L 66 159 L 66 139 Z " fill-rule="evenodd" fill="rgb(198,160,139)"/><mask id="_mask_PRnk8a5vRyKbwchkQ3TqGLABtkf7sTol"><path d=" M 66 159 L 66 139 L 70 138 Q 70.016 144.703 70 145 Q 69.984 145.297 79 145 L 97 153 L 114 145 L 122 145 L 123 147 L 117 160 L 125 169 L 124 170 L 79 170 L 66 159 Z " fill="white" stroke="none"/></mask><path d=" M 66 159 L 66 139 L 70 138 Q 70.016 144.703 70 145 Q 69.984 145.297 79 145 L 97 153 L 114 145 L 122 145 L 123 147 L 117 160 L 125 169 L 124 170 L 79 170 L 66 159 Z " fill="rgb(4,5,0)"/><path d=" M 66 159 L 66 139 L 70 138 Q 70.016 144.703 70 145 Q 69.984 145.297 79 145 L 97 153 L 114 145 L 122 145 L 123 147 L 117 160 L 125 169 L 124 170 L 79 170 L 66 159 Z " fill="rgb(4,5,0)" mask="url(#_mask_PRnk8a5vRyKbwchkQ3TqGLABtkf7sTol)" vector-effect="non-scaling-stroke" stroke-width="1" stroke="rgb(0,0,0)" stroke-linejoin="miter" stroke-linecap="round" stroke-miterlimit="3"/><path d=" M 125 169 L 137 169 L 138 170 L 138 178 L 137 179 L 125 179 L 124 178 L 124 170 L 125 169 Z " fill="rgb(0,0,0)"/><path d=" M 97 153 L 114 145 L 122 145 L 114 136 L 110 134 L 110 111 L 104 115 L 97 115 L 89 115 L 72 103 L 64 54 L 97 20 L 97 115 L 97 153 Z " fill="rgb(246,199,171)"/><path d=" M 97 91 L 99 89 L 103 90 L 106 93 L 97 95 L 88 93 L 90 91 L 94 89 L 97 91 Z " fill="rgb(158,64,64)"/><path d=" M 88 93 L 90 96 L 94 98 L 99 98 Q 104.359 95.836 104 96 Q 103.641 96.164 106 93 L 97 95 L 88 93 Z " fill="rgb(255,164,163)"/><path d=" M 107 53 L 113 53 L 113 72 L 107 72 L 107 53 Z " fill="rgb(0,0,0)"/><path d=" M 81.5 53 L 87.5 53 L 87.5 72 L 81.5 72 L 81.5 53 Z " fill="rgb(0,0,0)"/><path d=" M 96 136 L 86 126 Q 84.406 125.469 84 126 Q 83.594 126.531 84 128 L 95 138 L 98 138 L 110 127 Q 110.406 125.5 110 125 Q 109.594 124.5 108 125 L 97 136 L 96 136 Z " fill="rgb(0,0,0)"/><ellipse vector-effect="non-scaling-stroke" cx="96.5" cy="139.00000000000006" rx="2.5" ry="2" fill="rgb(13,14,255)"/><path d=" M 129 161 L 132 162 L 138 146 L 132 135 L 141 122 L 141 120 L 131 110 L 134 105 L 131 103 L 125 110 L 127 113 L 135 121 L 127 131 L 127 134 L 133 146 L 129 161 Z " fill="rgb(200,25,23)"/><path d=" M 129 180 L 132 180 L 132 194 L 129 194 L 129 180 Z " fill="rgb(200,25,23)"/></g></svg>