<?xml version="1.0" encoding="UTF-8" standalone="no"?>
<!-- Generator: Gravit.io -->
<svg xmlns="http://www.w3.org/2000/svg" xmlns:xlink="http://www.w3.org/1999/xlink" style="isolation:isolate" viewBox="0 0 200 200" width="200" height="200">
    <g>
        <path d=" M 65 158 L 83 168 L 100 168 L 100 135 L 100 32 L 135 65 L 135 117 L 100 135 L 81 125 L 81 142 L 77 150 L 65 158 Z " fill="rgb(105,83,66)" />
        <path d=" M 117 185 L 135 168 Q 139.625 155.922 140 156 Q 140.375 156.078 137 149 L 139 146 L 139 140 Q 134.641 134.094 135 134 Q 135.359 133.906 152 118 L 152 82 L 144 49 L 100 15 L 56 49 L 48 84 L 48 118 L 65 135 L 65 158 L 77 150 L 81 142 L 81 125 L 65 117 L 65 66 L 100 32 L 135 65 L 135 117 L 117 126 L 117 134 L 111 142 L 111 151 Q 115.719 156.609 116 157 Q 116.281 157.391 120 166 L 117 185 Z " fill="rgb(16,8,5)" />
        <path d=" M 100 168 L 117 168 L 120 166 L 117 158 L 111 151 Q 111.215 141.773 111 142 Q 110.785 142.227 117 134 L 117 126 L 100 135 L 100 32 L 65 66 L 65 117 L 100 135 L 100 168 Z " fill="rgb(114,89,69)" />
        <path d=" M 100 107 L 97 104 L 96 104 L 92 108 L 92 109 L 108 109 L 108 108 L 104 104 L 103 104 L 100 107 Z " fill="rgb(79,1,1)" />
        <path d=" M 92 109 Q 92.469 109.145 108 109 L 107 112 L 100 114 L 94 113 Q 91.531 108.855 92 109 Z " fill="rgb(104,0,0)" />
        <path d=" M 81 89 L 87 89 L 87 71 L 81 71 L 81 89 Z " fill="rgb(0,0,0)" />
        <path d=" M 113 89 L 119 89 L 119 71 L 113 71 L 113 89 Z " fill="rgb(0,0,0)" />
        <path d=" M 81 142 L 81 141 L 88 148 L 100 153 L 101 153 L 111 149 L 111 150 L 101 154 L 100 154 L 87 149 L 81 142 L 81 142 Z " fill="rgb(0,0,0)" />
        <path d=" M 100 161 L 97 158 L 97 157 L 100 154 L 101 154 L 104 157 L 104 158 L 101 161 L 100 161 Z  M 100 155 L 100 157 L 101 157 L 101 155 L 103 157 L 103 158 L 101 160 L 100 160 L 98 158 L 98 157 L 100 155 Z " fill-rule="evenodd" fill="rgb(243,170,29)" />
        <circle vector-effect="non-scaling-stroke" cx="100.50000000000001" cy="157.5" r="0.75" fill="rgb(38,28,179)" />
        <path d=" M 65 158 L 58 163 L 58 165 L 83 180 L 118 180 L 120 166 L 117 168 L 83 168 L 65 158 Z " fill="rgb(8,8,96)" />
    </g>
</svg>