<?xml version="1.0" encoding="UTF-8" standalone="no"?>
<!-- Generator: Gravit.io -->
<svg xmlns="http://www.w3.org/2000/svg" xmlns:xlink="http://www.w3.org/1999/xlink" style="isolation:isolate" viewBox="0 0 800 600" width="800" height="600">
    <polygon points="656.751,448.447,399.908,596.735,143.066,448.447,143.066,151.87,399.908,3.582,656.751,151.87" fill="rgb(83,115,109)" />
    <g filter="url(#omyeA7zKApPfI9f0QSZTdFUP8lBCf1me)">
        <g>
            <path d=" M 160.112 370.658 L 224.829 307.14 L 156.517 307.14 L 224.829 234.034" fill="none" vector-effect="non-scaling-stroke" stroke-width="12" stroke="rgb(179,25,0)" stroke-linejoin="round" stroke-linecap="round" stroke-miterlimit="3" />
            <line x1="281.156" y1="232.836" x2="281.156" y2="367.063" vector-effect="non-scaling-stroke" stroke-width="12" stroke="rgb(179,25,0)" stroke-linejoin="round" stroke-linecap="round" stroke-miterlimit="3" />
            <line x1="239.21" y1="244.82" x2="309.919" y2="298.751" vector-effect="non-scaling-stroke" stroke-width="12" stroke="rgb(179,25,0)" stroke-linejoin="round" stroke-linecap="round" stroke-miterlimit="3" />
            <path d=" M 326.697 365.864 L 393.811 272.385 L 356.658 230.439 L 327.896 272.385 L 395.009 362.269" fill="none" vector-effect="non-scaling-stroke" stroke-width="12" stroke="rgb(179,25,0)" stroke-linejoin="round" stroke-linecap="round" stroke-miterlimit="3" />
            <path d=" M 416.581 301.148 L 448.939 242.423 L 481.298 297.552" fill="none" vector-effect="non-scaling-stroke" stroke-width="12" stroke="rgb(179,25,0)" stroke-linejoin="round" stroke-linecap="round" stroke-miterlimit="3" />
            <line x1="448.939" y1="242.423" x2="448.939" y2="369.459" vector-effect="non-scaling-stroke" stroke-width="12" stroke="rgb(179,25,0)" stroke-linejoin="round" stroke-linecap="round" stroke-miterlimit="3" />
            <path d=" M 507.664 364.666 L 508.862 234.034 L 571.182 281.972 L 530.434 311.934 L 575.975 368.261" fill="none" vector-effect="non-scaling-stroke" stroke-width="12" stroke="rgb(179,25,0)" stroke-linejoin="round" stroke-linecap="round" stroke-miterlimit="3" />
            <line x1="597.548" y1="364.666" x2="598.746" y2="238.828" vector-effect="non-scaling-stroke" stroke-width="12" stroke="rgb(179,25,0)" stroke-linejoin="round" stroke-linecap="round" stroke-miterlimit="3" />
            <line x1="645.486" y1="335.903" x2="598.746" y2="279.575" vector-effect="non-scaling-stroke" stroke-width="12" stroke="rgb(179,25,0)" stroke-linejoin="round" stroke-linecap="round" stroke-miterlimit="3" />
            <line x1="598.746" y1="238.828" x2="644.287" y2="299.949" vector-effect="non-scaling-stroke" stroke-width="12" stroke="rgb(179,25,0)" stroke-linejoin="round" stroke-linecap="round" stroke-miterlimit="3" />
        </g>
        <g>
            <path d=" M 353.3 416.708 L 365.317 405.324 L 353.3 404.692 L 363.419 393.94" fill="none" vector-effect="non-scaling-stroke" stroke-width="6" stroke="rgb(253,139,4)" stroke-linejoin="round" stroke-linecap="round" stroke-miterlimit="3" />
            <path d=" M 372.906 416.076 L 372.906 398.999 L 383.658 416.708 L 383.658 397.102" fill="none" vector-effect="non-scaling-stroke" stroke-width="6" stroke="rgb(253,139,4)" stroke-linejoin="round" stroke-linecap="round" stroke-miterlimit="3" />
            <path d=" M 395.043 397.102 L 390.616 407.221 L 397.573 416.076 L 402.632 405.956 L 395.043 397.102 Z " fill="none" vector-effect="non-scaling-stroke" stroke-width="6" stroke="rgb(253,139,4)" stroke-linejoin="round" stroke-linecap="round" stroke-miterlimit="3" />
            <line x1="408.957" y1="395.205" x2="410.222" y2="416.708" vector-effect="non-scaling-stroke" stroke-width="6" stroke="rgb(253,139,4)" stroke-linejoin="round" stroke-linecap="round" stroke-miterlimit="3" />
            <line x1="417.812" y1="398.999" x2="403.897" y2="398.999" vector-effect="non-scaling-stroke" stroke-width="6" stroke="rgb(253,139,4)" stroke-linejoin="round" stroke-linecap="round" stroke-miterlimit="3" />
            <path d=" M 422.239 416.708 L 421.606 398.367 L 429.829 404.692 L 422.239 410.384 L 431.726 416.708" fill="none" vector-effect="non-scaling-stroke" stroke-width="6" stroke="rgb(253,139,4)" stroke-linejoin="round" stroke-linecap="round" stroke-miterlimit="3" />
            <path d=" M 436.153 416.708 L 440.581 397.102 L 446.905 417.341" fill="none" vector-effect="non-scaling-stroke" stroke-width="6" stroke="rgb(253,139,4)" stroke-linejoin="round" stroke-linecap="round" stroke-miterlimit="3" />
            <line x1="437.418" y1="411.649" x2="445.008" y2="411.649" vector-effect="non-scaling-stroke" stroke-width="6" stroke="rgb(253,139,4)" stroke-linejoin="round" stroke-linecap="round" stroke-miterlimit="3" />
        </g>
        <g>
            <line x1="177.723" y1="426.648" x2="239.069" y2="462.066" vector-effect="non-scaling-stroke" stroke-width="4" stroke="rgb(5,23,104)" stroke-linejoin="round" stroke-linecap="round" stroke-miterlimit="3" />
            <line x1="195.831" y1="464.855" x2="221.446" y2="420.488" vector-effect="non-scaling-stroke" stroke-width="4" stroke="rgb(5,23,104)" stroke-linejoin="round" stroke-linecap="round" stroke-miterlimit="3" />
            <line x1="182.985" y1="442.832" x2="192.472" y2="426.4" vector-effect="non-scaling-stroke" stroke-width="4" stroke="rgb(5,23,104)" stroke-linejoin="round" stroke-linecap="round" stroke-miterlimit="3" />
            <path d=" M 242.949 454.082 Q 229.181 456.266 233.377 471.925" fill="none" vector-effect="non-scaling-stroke" stroke-width="4" stroke="rgb(5,23,104)" stroke-linejoin="round" stroke-linecap="round" stroke-miterlimit="3" />
            <path d=" M 228.402 479.277 Q 219.904 466.247 227.019 455.109 Q 234.134 443.972 247.376 446.414" fill="none" vector-effect="non-scaling-stroke" stroke-width="4" stroke="rgb(5,23,104)" stroke-linejoin="round" stroke-linecap="round" stroke-miterlimit="3" />
            <mask id="_mask_MMUcVE5Ae4IWhX0YXjhcWAwBBNmGHm4J">
                <path d=" M 259.177 474.041 C 263.802 466.03 274.061 463.281 282.072 467.906 C 290.083 472.531 292.832 482.79 288.207 490.801 C 283.582 498.812 273.323 501.561 265.312 496.936 C 257.301 492.311 254.552 482.052 259.177 474.041 Z " fill="white" stroke="none" />
            </mask>
            <path d=" M 259.177 474.041 C 263.802 466.03 274.061 463.281 282.072 467.906 C 290.083 472.531 292.832 482.79 288.207 490.801 C 283.582 498.812 273.323 501.561 265.312 496.936 C 257.301 492.311 254.552 482.052 259.177 474.041 Z " fill="none" />
            <path d=" M 259.177 474.041 C 263.802 466.03 274.061 463.281 282.072 467.906 C 290.083 472.531 292.832 482.79 288.207 490.801 C 283.582 498.812 273.323 501.561 265.312 496.936 C 257.301 492.311 254.552 482.052 259.177 474.041 Z " fill="none" mask="url(#_mask_MMUcVE5Ae4IWhX0YXjhcWAwBBNmGHm4J)" vector-effect="non-scaling-stroke" stroke-width="8" stroke="rgb(5,23,104)" stroke-linejoin="round" stroke-linecap="round" stroke-miterlimit="3" />
            <line x1="280.934" y1="467.979" x2="264.49" y2="496.462" vector-effect="non-scaling-stroke" stroke-width="4" stroke="rgb(5,23,104)" stroke-linejoin="round" stroke-linecap="round" stroke-miterlimit="3" />
            <path d=" M 311.155 516.831 L 326.938 513.528 L 285.626 488.946" fill="none" vector-effect="non-scaling-stroke" stroke-width="4" stroke="rgb(5,23,104)" stroke-linejoin="round" stroke-linecap="round" stroke-miterlimit="3" />
            <line x1="321.274" y1="499.303" x2="326.938" y2="513.528" vector-effect="non-scaling-stroke" stroke-width="4" stroke="rgb(5,23,104)" stroke-linejoin="round" stroke-linecap="round" stroke-miterlimit="3" />
            <path d=" M 301.781 507.767 L 315.983 507.203 L 311.246 496.434" fill="none" vector-effect="non-scaling-stroke" stroke-width="4" stroke="rgb(5,23,104)" stroke-linejoin="round" stroke-linecap="round" stroke-miterlimit="3" />
            <line x1="348.248" y1="555.043" x2="377.11" y2="503.788" vector-effect="non-scaling-stroke" stroke-width="4" stroke="rgb(5,23,104)" stroke-linejoin="round" stroke-linecap="round" stroke-miterlimit="3" />
            <path d=" M 352.675 547.375 L 383.671 545.552 L 370.7 516.154 L 338.209 519.305 L 352.675 547.375 Z " fill="none" vector-effect="non-scaling-stroke" stroke-width="4" stroke="rgb(5,23,104)" stroke-linejoin="round" stroke-linecap="round" stroke-miterlimit="3" />
            <path d=" M 356.47 540.802 Q 372.729 539.392 372.716 539.227 L 365.957 524.37 L 348.616 525.313 L 356.47 540.802" fill="none" vector-effect="non-scaling-stroke" stroke-width="4" stroke="rgb(5,23,104)" stroke-linejoin="round" stroke-linecap="round" stroke-miterlimit="3" />
        </g>
        <g>
            <line x1="623.309" y1="426.448" x2="561.963" y2="461.866" vector-effect="non-scaling-stroke" stroke-width="4" stroke="rgb(5,23,104)" stroke-linejoin="round" stroke-linecap="round" stroke-miterlimit="3" />
            <line x1="605.201" y1="464.654" x2="579.586" y2="420.288" vector-effect="non-scaling-stroke" stroke-width="4" stroke="rgb(5,23,104)" stroke-linejoin="round" stroke-linecap="round" stroke-miterlimit="3" />
            <line x1="618.047" y1="442.631" x2="608.56" y2="426.199" vector-effect="non-scaling-stroke" stroke-width="4" stroke="rgb(5,23,104)" stroke-linejoin="round" stroke-linecap="round" stroke-miterlimit="3" />
            <path d=" M 558.084 453.881 Q 571.851 456.066 567.655 471.725" fill="none" vector-effect="non-scaling-stroke" stroke-width="4" stroke="rgb(5,23,104)" stroke-linejoin="round" stroke-linecap="round" stroke-miterlimit="3" />
            <path d=" M 572.63 479.077 Q 581.128 466.046 574.013 454.909 Q 566.898 443.771 553.656 446.213" fill="none" vector-effect="non-scaling-stroke" stroke-width="4" stroke="rgb(5,23,104)" stroke-linejoin="round" stroke-linecap="round" stroke-miterlimit="3" />
            <mask id="_mask_6Rg645zDfp4CmgzO5nS3pdRBlCiKKZhZ">
                <path d=" M 541.855 473.84 C 537.23 465.829 526.971 463.08 518.96 467.706 C 510.949 472.331 508.2 482.59 512.825 490.601 C 517.45 498.612 527.709 501.361 535.72 496.735 C 543.731 492.11 546.48 481.851 541.855 473.84 Z " fill="white" stroke="none" />
            </mask>
            <path d=" M 541.855 473.84 C 537.23 465.829 526.971 463.08 518.96 467.706 C 510.949 472.331 508.2 482.59 512.825 490.601 C 517.45 498.612 527.709 501.361 535.72 496.735 C 543.731 492.11 546.48 481.851 541.855 473.84 Z " fill="none" />
            <path d=" M 541.855 473.84 C 537.23 465.829 526.971 463.08 518.96 467.706 C 510.949 472.331 508.2 482.59 512.825 490.601 C 517.45 498.612 527.709 501.361 535.72 496.735 C 543.731 492.11 546.48 481.851 541.855 473.84 Z " fill="none" mask="url(#_mask_6Rg645zDfp4CmgzO5nS3pdRBlCiKKZhZ)" vector-effect="non-scaling-stroke" stroke-width="8" stroke="rgb(5,23,104)" stroke-linejoin="round" stroke-linecap="round" stroke-miterlimit="3" />
            <line x1="520.098" y1="467.779" x2="536.542" y2="496.261" vector-effect="non-scaling-stroke" stroke-width="4" stroke="rgb(5,23,104)" stroke-linejoin="round" stroke-linecap="round" stroke-miterlimit="3" />
            <path d=" M 489.877 516.63 L 474.094 513.327 L 515.406 488.746" fill="none" vector-effect="non-scaling-stroke" stroke-width="4" stroke="rgb(5,23,104)" stroke-linejoin="round" stroke-linecap="round" stroke-miterlimit="3" />
            <line x1="479.758" y1="499.103" x2="474.094" y2="513.327" vector-effect="non-scaling-stroke" stroke-width="4" stroke="rgb(5,23,104)" stroke-linejoin="round" stroke-linecap="round" stroke-miterlimit="3" />
            <path d=" M 499.251 507.567 L 485.049 507.002 L 489.786 496.234" fill="none" vector-effect="non-scaling-stroke" stroke-width="4" stroke="rgb(5,23,104)" stroke-linejoin="round" stroke-linecap="round" stroke-miterlimit="3" />
            <line x1="452.784" y1="554.843" x2="423.922" y2="503.588" vector-effect="non-scaling-stroke" stroke-width="4" stroke="rgb(5,23,104)" stroke-linejoin="round" stroke-linecap="round" stroke-miterlimit="3" />
            <path d=" M 448.357 547.175 L 417.362 545.351 L 430.332 515.954 L 462.823 519.104 L 448.357 547.175 Z " fill="none" vector-effect="non-scaling-stroke" stroke-width="4" stroke="rgb(5,23,104)" stroke-linejoin="round" stroke-linecap="round" stroke-miterlimit="3" />
            <path d=" M 444.562 540.602 Q 428.303 539.191 428.316 539.027 L 435.075 524.17 L 452.417 525.113 L 444.562 540.602" fill="none" vector-effect="non-scaling-stroke" stroke-width="4" stroke="rgb(5,23,104)" stroke-linejoin="round" stroke-linecap="round" stroke-miterlimit="3" />
        </g>
        <g>
            <line x1="181.169" y1="178.904" x2="242.515" y2="143.486" vector-effect="non-scaling-stroke" stroke-width="4" stroke="rgb(5,23,104)" stroke-linejoin="round" stroke-linecap="round" stroke-miterlimit="3" />
            <line x1="223.312" y1="182.325" x2="197.697" y2="137.959" vector-effect="non-scaling-stroke" stroke-width="4" stroke="rgb(5,23,104)" stroke-linejoin="round" stroke-linecap="round" stroke-miterlimit="3" />
            <line x1="197.816" y1="182.439" x2="188.329" y2="166.007" vector-effect="non-scaling-stroke" stroke-width="4" stroke="rgb(5,23,104)" stroke-linejoin="round" stroke-linecap="round" stroke-miterlimit="3" />
            <path d=" M 237.54 136.134 Q 232.548 149.149 248.208 153.345" fill="none" vector-effect="non-scaling-stroke" stroke-width="4" stroke="rgb(5,23,104)" stroke-linejoin="round" stroke-linecap="round" stroke-miterlimit="3" />
            <path d=" M 252.087 161.33 Q 236.553 162.174 230.465 150.443 Q 224.377 138.713 233.113 128.466" fill="none" vector-effect="non-scaling-stroke" stroke-width="4" stroke="rgb(5,23,104)" stroke-linejoin="round" stroke-linecap="round" stroke-miterlimit="3" />
            <mask id="_mask_2xAI8JgL2U01vj7vJytPI9KcwsFdpE19">
                <path d=" M 262.94 132.059 C 258.315 124.048 261.063 113.789 269.074 109.164 C 277.085 104.539 287.344 107.288 291.97 115.299 C 296.595 123.31 293.846 133.569 285.835 138.194 C 277.824 142.819 267.565 140.07 262.94 132.059 Z " fill="white" stroke="none" />
            </mask>
            <path d=" M 262.94 132.059 C 258.315 124.048 261.063 113.789 269.074 109.164 C 277.085 104.539 287.344 107.288 291.97 115.299 C 296.595 123.31 293.846 133.569 285.835 138.194 C 277.824 142.819 267.565 140.07 262.94 132.059 Z " fill="none" />
            <path d=" M 262.94 132.059 C 258.315 124.048 261.063 113.789 269.074 109.164 C 277.085 104.539 287.344 107.288 291.97 115.299 C 296.595 123.31 293.846 133.569 285.835 138.194 C 277.824 142.819 267.565 140.07 262.94 132.059 Z " fill="none" mask="url(#_mask_2xAI8JgL2U01vj7vJytPI9KcwsFdpE19)" vector-effect="non-scaling-stroke" stroke-width="8" stroke="rgb(5,23,104)" stroke-linejoin="round" stroke-linecap="round" stroke-miterlimit="3" />
            <line x1="268.569" y1="110.186" x2="285.013" y2="138.668" vector-effect="non-scaling-stroke" stroke-width="4" stroke="rgb(5,23,104)" stroke-linejoin="round" stroke-linecap="round" stroke-miterlimit="3" />
            <path d=" M 325.986 108.44 L 331.017 93.12 L 289.073 116.606" fill="none" vector-effect="non-scaling-stroke" stroke-width="4" stroke="rgb(5,23,104)" stroke-linejoin="round" stroke-linecap="round" stroke-miterlimit="3" />
            <line x1="315.866" y1="90.913" x2="331.017" y2="93.12" vector-effect="non-scaling-stroke" stroke-width="4" stroke="rgb(5,23,104)" stroke-linejoin="round" stroke-linecap="round" stroke-miterlimit="3" />
            <path d=" M 313.45 112.026 L 320.062 99.445 L 308.367 98.163" fill="none" vector-effect="non-scaling-stroke" stroke-width="4" stroke="rgb(5,23,104)" stroke-linejoin="round" stroke-linecap="round" stroke-miterlimit="3" />
            <line x1="377.626" y1="95.423" x2="347.668" y2="44.8" vector-effect="non-scaling-stroke" stroke-width="4" stroke="rgb(5,23,104)" stroke-linejoin="round" stroke-linecap="round" stroke-miterlimit="3" />
            <path d=" M 373.198 87.755 L 387.117 60 L 355.173 56.534 L 341.655 86.248 L 373.198 87.755 Z " fill="none" vector-effect="non-scaling-stroke" stroke-width="4" stroke="rgb(5,23,104)" stroke-linejoin="round" stroke-linecap="round" stroke-miterlimit="3" />
            <path d=" M 369.403 81.182 Q 376.312 66.396 376.162 66.325 L 359.916 64.75 L 352.062 80.239 L 369.403 81.182" fill="none" vector-effect="non-scaling-stroke" stroke-width="4" stroke="rgb(5,23,104)" stroke-linejoin="round" stroke-linecap="round" stroke-miterlimit="3" />
        </g>
        <g>
            <line x1="620.689" y1="180.948" x2="559.343" y2="145.53" vector-effect="non-scaling-stroke" stroke-width="4" stroke="rgb(5,23,104)" stroke-linejoin="round" stroke-linecap="round" stroke-miterlimit="3" />
            <line x1="578.547" y1="184.369" x2="604.162" y2="140.003" vector-effect="non-scaling-stroke" stroke-width="4" stroke="rgb(5,23,104)" stroke-linejoin="round" stroke-linecap="round" stroke-miterlimit="3" />
            <line x1="604.042" y1="184.483" x2="613.529" y2="168.051" vector-effect="non-scaling-stroke" stroke-width="4" stroke="rgb(5,23,104)" stroke-linejoin="round" stroke-linecap="round" stroke-miterlimit="3" />
            <path d=" M 564.318 138.178 Q 569.31 151.194 553.651 155.389" fill="none" vector-effect="non-scaling-stroke" stroke-width="4" stroke="rgb(5,23,104)" stroke-linejoin="round" stroke-linecap="round" stroke-miterlimit="3" />
            <path d=" M 549.771 163.374 Q 565.305 164.218 571.393 152.487 Q 577.481 140.757 568.745 130.51" fill="none" vector-effect="non-scaling-stroke" stroke-width="4" stroke="rgb(5,23,104)" stroke-linejoin="round" stroke-linecap="round" stroke-miterlimit="3" />
            <mask id="_mask_urtaefoFiv1l7a2veN6dzFJghrkjwnne">
                <path d=" M 538.919 134.103 C 543.544 126.092 540.795 115.834 532.784 111.208 C 524.773 106.583 514.514 109.332 509.889 117.343 C 505.264 125.354 508.012 135.613 516.023 140.238 C 524.034 144.863 534.293 142.115 538.919 134.103 Z " fill="white" stroke="none" />
            </mask>
            <path d=" M 538.919 134.103 C 543.544 126.092 540.795 115.834 532.784 111.208 C 524.773 106.583 514.514 109.332 509.889 117.343 C 505.264 125.354 508.012 135.613 516.023 140.238 C 524.034 144.863 534.293 142.115 538.919 134.103 Z " fill="none" />
            <path d=" M 538.919 134.103 C 543.544 126.092 540.795 115.834 532.784 111.208 C 524.773 106.583 514.514 109.332 509.889 117.343 C 505.264 125.354 508.012 135.613 516.023 140.238 C 524.034 144.863 534.293 142.115 538.919 134.103 Z " fill="none" mask="url(#_mask_urtaefoFiv1l7a2veN6dzFJghrkjwnne)" vector-effect="non-scaling-stroke" stroke-width="8" stroke="rgb(5,23,104)" stroke-linejoin="round" stroke-linecap="round" stroke-miterlimit="3" />
            <line x1="533.289" y1="112.23" x2="516.845" y2="140.713" vector-effect="non-scaling-stroke" stroke-width="4" stroke="rgb(5,23,104)" stroke-linejoin="round" stroke-linecap="round" stroke-miterlimit="3" />
            <path d=" M 475.873 110.484 L 470.842 95.164 L 512.786 118.65" fill="none" vector-effect="non-scaling-stroke" stroke-width="4" stroke="rgb(5,23,104)" stroke-linejoin="round" stroke-linecap="round" stroke-miterlimit="3" />
            <line x1="485.992" y1="92.957" x2="470.842" y2="95.164" vector-effect="non-scaling-stroke" stroke-width="4" stroke="rgb(5,23,104)" stroke-linejoin="round" stroke-linecap="round" stroke-miterlimit="3" />
            <path d=" M 488.408 114.07 L 481.796 101.489 L 493.491 100.207" fill="none" vector-effect="non-scaling-stroke" stroke-width="4" stroke="rgb(5,23,104)" stroke-linejoin="round" stroke-linecap="round" stroke-miterlimit="3" />
            <line x1="424.233" y1="97.467" x2="454.19" y2="46.844" vector-effect="non-scaling-stroke" stroke-width="4" stroke="rgb(5,23,104)" stroke-linejoin="round" stroke-linecap="round" stroke-miterlimit="3" />
            <path d=" M 428.66 89.799 L 414.741 62.045 L 446.685 58.578 L 460.203 88.292 L 428.66 89.799 Z " fill="none" vector-effect="non-scaling-stroke" stroke-width="4" stroke="rgb(5,23,104)" stroke-linejoin="round" stroke-linecap="round" stroke-miterlimit="3" />
            <path d=" M 432.455 83.226 Q 425.547 68.44 425.696 68.369 L 441.942 66.794 L 449.796 82.284 L 432.455 83.226" fill="none" vector-effect="non-scaling-stroke" stroke-width="4" stroke="rgb(5,23,104)" stroke-linejoin="round" stroke-linecap="round" stroke-miterlimit="3" />
        </g>
    </g>
    <defs>
        <filter id="omyeA7zKApPfI9f0QSZTdFUP8lBCf1me" x="-200%" y="-200%" width="400%" height="400%" filterUnits="objectBoundingBox" color-interpolation-filters="sRGB">
            <feGaussianBlur xmlns="http://www.w3.org/2000/svg" in="SourceGraphic" stdDeviation="1.7174436251356113" />
            <feOffset xmlns="http://www.w3.org/2000/svg" dx="0" dy="4" result="pf_100_offsetBlur" />
            <feFlood xmlns="http://www.w3.org/2000/svg" flood-color="#000000" flood-opacity="0.65" />
            <feComposite xmlns="http://www.w3.org/2000/svg" in2="pf_100_offsetBlur" operator="in" result="pf_100_dropShadow" />
            <feBlend xmlns="http://www.w3.org/2000/svg" in="SourceGraphic" in2="pf_100_dropShadow" mode="normal" />
        </filter>
    </defs>
</svg>