<svg width="35" height="46" viewBox="0 0 35 46" fill="none" xmlns="http://www.w3.org/2000/svg">
<path d="M24.6873 46L18.8291 35.8716H30.6063L24.6873 46Z" fill="#DAD3C7"/>
<path d="M4.3937 46L0 43.4679L4.43531e-07 38.4037L4.3937 35.8716L8.7874 38.4037L8.7874 43.4679L4.3937 46Z" fill="#DAD3C7"/>
<path d="M10.3127 0L16.1709 10.1284H4.3937L10.3127 0Z" fill="#DAD3C7"/>
<path d="M30.6063 0L35 2.53211V7.59633L30.6063 10.1284L26.2126 7.59633V2.53211L30.6063 0Z" fill="#DAD3C7"/>
<path d="M10.3127 0H30.6063V10.1284H10.3127V0Z" fill="#DAD3C7"/>
<path d="M24.6873 46H4.3937L4.3937 35.8716H24.6873V46Z" fill="#DAD3C7"/>
<path d="M4.3937 10.1284H30.6063V35.8716H4.3937L4.3937 10.1284Z" fill="#DAD3C7"/>
</svg>
